<svg width="375" height="812" viewBox="0 0 375 812" fill="none" xmlns="http://www.w3.org/2000/svg">
<g clip-path="url(#clip0)">
<g clip-path="url(#clip1)">
<path d="M76.8182 583.272C80.6885 590.901 74.7382 601.71 86.1902 595.898C97.6422 590.086 118.317 568.001 115.977 563.399C113.636 558.797 92.7705 557.795 81.3185 563.607C69.8645 569.414 72.9411 575.64 76.8182 583.272ZM13.6314 700.283C14.4976 699.768 15.4994 699.528 16.5048 699.593C28.0273 695.992 28.0224 684.106 28.0224 684.106C29.4296 681.621 28.6211 672.571 33.1181 675.115L35.0659 682.159C37.0136 689.202 29.3715 702.686 29.3715 702.686L38.3627 707.781C38.9531 708.116 39.4718 708.563 39.8891 709.098C40.3065 709.634 40.6145 710.246 40.7953 710.9C40.9762 711.554 41.0265 712.237 40.9433 712.91C40.8601 713.584 40.645 714.234 40.3105 714.825C39.9759 715.415 39.5283 715.934 38.9932 716.351C38.4582 716.769 37.8462 717.076 37.1921 717.257C36.5381 717.438 35.8548 717.488 35.1813 717.405C34.5079 717.322 33.8574 717.107 33.267 716.772L28.287 713.951L28.9762 715.056C29.7044 716.217 29.9413 717.62 29.6349 718.956C29.3285 720.292 28.5039 721.452 27.3424 722.18C26.1809 722.908 24.7778 723.145 23.4416 722.839C22.1055 722.533 20.9458 721.708 20.2177 720.546L11.988 707.411C11.2631 706.247 11.029 704.844 11.337 703.507C11.645 702.171 12.47 701.012 13.6314 700.283V700.283ZM44.7375 690.542C45.5296 689.919 46.4887 689.546 47.4932 689.47C58.4278 684.355 56.8352 672.579 56.8352 672.579C57.8961 669.926 55.8816 661.064 60.6807 662.985L63.556 669.702C66.4313 676.418 60.662 690.805 60.662 690.805L70.2554 694.651C70.8852 694.903 71.4591 695.277 71.9445 695.751C72.4298 696.225 72.817 696.79 73.084 697.413C73.351 698.037 73.4926 698.707 73.5006 699.386C73.5086 700.064 73.3829 700.737 73.1307 701.367C72.8785 701.997 72.5048 702.571 72.0308 703.056C71.5568 703.541 70.9918 703.929 70.3682 704.196C69.7445 704.463 69.0744 704.604 68.3961 704.612C67.7177 704.62 67.0444 704.494 66.4147 704.242L61.1005 702.113L61.9372 703.116C62.8144 704.169 63.2373 705.528 63.1127 706.893C62.9882 708.258 62.3265 709.518 61.2731 710.395C60.2198 711.272 58.8611 711.695 57.496 711.57C56.1309 711.446 54.8712 710.784 53.994 709.731L44.0829 697.817C43.6458 697.297 43.3159 696.696 43.1121 696.048C42.9083 695.401 42.8347 694.719 42.8956 694.043C42.9564 693.367 43.1505 692.709 43.4666 692.108C43.7828 691.507 44.2147 690.975 44.7375 690.542V690.542Z" fill="#FFAC33"/>
<path d="M-59.6735 606.826C-58.1967 605.242 -56.1853 605.021 -54.1881 605.861C-53.8181 606.018 -21.3431 627.291 24.9004 599.961C26.4257 599.059 34.1933 663.208 33.8959 663.301C33.2781 663.486 18.5566 667.763 -0.459251 663.588C-17.9128 659.758 -42.4553 647.821 -60.2859 612.696C-61.2647 610.765 -61.1483 608.413 -59.6735 606.826V606.826Z" fill="#DD2E44"/>
<path d="M-28.0508 674.107C-27.7609 672.097 -26.379 670.251 -24.3497 669.887C-17.6059 668.673 -8.05246 666 -1.89749 662.875C27.4576 647.977 34.2501 624.305 34.3348 624.095C35.0715 622.197 55.4934 679.956 53.878 680.778C11.4243 702.328 -24.2166 680.173 -25.7163 679.223C-27.4313 678.122 -28.3435 676.124 -28.0508 674.107Z" fill="#DD2E44"/>
<path d="M14.7384 644.148C27.6508 669.592 28.4345 693.69 53.8763 680.773C79.3201 667.861 92.1506 636.856 79.2361 611.408C66.3216 585.959 1.82114 618.707 14.7384 644.148Z" fill="#DD2E44"/>
<path d="M7.6944 610.064C19.9649 634.237 45.0698 646.136 69.238 633.867C93.4109 621.597 103.063 592.058 90.7929 567.885C78.5224 543.712 50.7363 537.519 26.5634 549.789C8.08696 559.164 -3.13407 588.725 7.6944 610.064V610.064Z" fill="#DD2E44"/>
<path d="M64.6536 577.831C59.4025 580.066 53.3338 577.621 51.0989 572.37C48.8639 567.118 51.309 561.05 56.5601 558.815C61.8112 556.58 67.8799 559.025 70.1148 564.276C72.3498 569.527 69.9047 575.596 64.6536 577.831Z" fill="#292F33"/>
<path d="M40.3996 619.913C40.3996 619.913 15.5546 662.202 -27.5103 623.778C-31.0965 620.577 -33.9162 630.958 -19.5597 643.765C-5.20311 656.572 32.3347 657.84 40.7863 626.706C42.5666 620.136 40.3996 619.913 40.3996 619.913Z" fill="#A0041E"/>
<path d="M26.5661 549.783C26.5661 549.783 -2.61344 563.628 -11.4707 563.293C-20.328 562.958 -6.18475 577.507 11.7033 574.706C29.5914 571.905 26.5661 549.783 26.5661 549.783V549.783Z" fill="#DD2E44"/>
<path d="M22.0021 566.779C22.0021 566.779 0.879608 576.533 -7.9804 576.205C-16.8404 575.877 -2.69442 590.419 15.1937 587.618C33.0865 584.814 22.0021 566.779 22.0021 566.779V566.779Z" fill="#DD2E44"/>
</g>
<path d="M110.983 541.579L93.9771 451L157.942 462.279L110.983 541.579Z" fill="#A578FC"/>
<path d="M29 154C29 137.431 42.4315 124 59 124H314C330.569 124 344 137.431 344 154V458C344 474.569 330.569 488 314 488H59C42.4315 488 29 474.569 29 458V154Z" fill="#A578FC"/>
<path d="M91.7031 284.609C91.7031 284.203 91.8698 283.875 92.2031 283.625C92.5365 283.375 92.8594 283.25 93.1719 283.25C93.6094 283.26 93.9948 283.401 94.3281 283.672C94.6615 283.943 94.8281 284.307 94.8281 284.766L94.8438 293.547L106.531 293.531L106.547 284.766C106.516 284.349 106.656 283.995 106.969 283.703C107.292 283.401 107.667 283.25 108.094 283.25C108.521 283.25 108.891 283.396 109.203 283.688C109.516 283.979 109.672 284.339 109.672 284.766L109.656 304.625C109.656 305.042 109.5 305.401 109.188 305.703C108.885 305.995 108.521 306.141 108.094 306.141C107.667 306.141 107.297 306 106.984 305.719C106.682 305.427 106.531 305.073 106.531 304.656V296.688L94.8594 296.703L94.875 304.672C94.875 305.099 94.724 305.458 94.4219 305.75C94.1198 306.042 93.75 306.188 93.3125 306.188C92.8854 306.188 92.5156 306.042 92.2031 305.75C91.901 305.448 91.75 305.089 91.75 304.672C91.7396 301.359 91.7292 298.047 91.7188 294.734C91.7188 291.411 91.7135 288.094 91.7031 284.781V284.609ZM119.938 288.938C121.323 288.938 122.594 289.281 123.75 289.969C124.906 290.656 125.833 291.583 126.531 292.75C127.24 293.906 127.594 295.193 127.594 296.609C127.594 296.901 127.578 297.198 127.547 297.5C127.505 297.885 127.328 298.214 127.016 298.484C126.714 298.745 126.37 298.875 125.984 298.875L115.062 298.891C115.24 299.641 115.573 300.344 116.062 301C116.552 301.656 117.146 302.188 117.844 302.594C118.552 303 119.323 303.203 120.156 303.203C121.052 303.203 121.854 302.984 122.562 302.547C123.271 302.109 123.823 301.604 124.219 301.031C124.344 300.833 124.531 300.667 124.781 300.531C125.042 300.396 125.286 300.328 125.516 300.328C125.943 300.328 126.307 300.484 126.609 300.797C126.922 301.109 127.078 301.479 127.078 301.906C127.078 302.24 126.984 302.536 126.797 302.797C126.151 303.745 125.26 304.568 124.125 305.266C123 305.953 121.693 306.297 120.203 306.297C119.005 306.297 117.891 306.062 116.859 305.594C115.839 305.125 114.948 304.484 114.188 303.672C113.427 302.859 112.833 301.927 112.406 300.875C111.99 299.812 111.781 298.693 111.781 297.516C111.781 296.38 111.99 295.302 112.406 294.281C112.823 293.25 113.401 292.333 114.141 291.531C114.891 290.729 115.76 290.099 116.75 289.641C117.74 289.172 118.802 288.938 119.938 288.938ZM124.375 295.75C124.177 294.729 123.667 293.859 122.844 293.141C122.021 292.422 121.052 292.062 119.938 292.062C118.802 292.062 117.797 292.432 116.922 293.172C116.057 293.911 115.474 294.776 115.172 295.766L124.375 295.75ZM132.438 286.094C132.438 285.667 132.589 285.302 132.891 285C133.193 284.688 133.562 284.531 134 284.531C134.427 284.531 134.792 284.688 135.094 285C135.406 285.302 135.562 285.667 135.562 286.094V289.203H137.656C138.062 289.203 138.411 289.349 138.703 289.641C138.995 289.932 139.141 290.281 139.141 290.688C139.141 291.094 138.995 291.443 138.703 291.734C138.411 292.026 138.062 292.172 137.656 292.172H135.547L135.531 301.844V301.875C135.531 302.385 135.589 302.74 135.703 302.938C135.818 303.125 136.052 303.219 136.406 303.219C136.854 303.219 137.25 303.099 137.594 302.859C137.719 302.776 137.87 302.703 138.047 302.641C138.224 302.568 138.396 302.531 138.562 302.531C138.99 302.531 139.354 302.682 139.656 302.984C139.969 303.286 140.125 303.651 140.125 304.078C140.125 304.589 139.917 305 139.5 305.312C139.104 305.615 138.651 305.865 138.141 306.062C137.63 306.26 137.083 306.359 136.5 306.359C135.188 306.359 134.177 305.958 133.469 305.156C132.76 304.344 132.406 303.333 132.406 302.125V301.984L132.422 292.188H130.406C130 292.188 129.651 292.042 129.359 291.75C129.068 291.458 128.922 291.109 128.922 290.703C128.922 290.297 129.068 289.948 129.359 289.656C129.651 289.365 130 289.219 130.406 289.219H132.438V286.094ZM161.625 303.891C161.062 304.443 160.385 304.99 159.594 305.531C158.812 306.073 157.901 306.344 156.859 306.344C155.495 306.344 154.359 305.984 153.453 305.266C152.547 304.536 151.88 303.693 151.453 302.734C151.12 301.974 150.917 301.224 150.844 300.484C150.781 299.734 150.75 299.031 150.75 298.375V290.484C150.75 290.057 150.901 289.693 151.203 289.391C151.516 289.078 151.885 288.922 152.312 288.922C152.74 288.922 153.104 289.078 153.406 289.391C153.719 289.693 153.875 290.057 153.875 290.484V298.375C153.875 298.99 153.901 299.557 153.953 300.078C154.016 300.599 154.135 301.057 154.312 301.453C154.51 301.911 154.818 302.323 155.234 302.688C155.651 303.042 156.182 303.219 156.828 303.219C158.37 303.219 159.552 302.63 160.375 301.453C161.208 300.276 161.62 298.688 161.609 296.688L161.594 290.453C161.594 290.026 161.745 289.661 162.047 289.359C162.359 289.047 162.729 288.891 163.156 288.891C163.594 288.891 163.964 289.047 164.266 289.359C164.568 289.661 164.719 290.031 164.719 290.469L164.75 304.828C164.75 305.255 164.63 305.625 164.391 305.938C164.161 306.24 163.833 306.391 163.406 306.391C162.979 306.391 162.651 306.24 162.422 305.938C162.193 305.625 162.016 305.255 161.891 304.828L161.625 303.891ZM184.359 297.625C184.359 298.802 184.141 299.948 183.703 301.062C183.276 302.177 182.63 303.161 181.766 304.016C181.005 304.755 180.13 305.328 179.141 305.734C178.151 306.141 177.125 306.344 176.062 306.344C174.979 306.344 174.016 306.115 173.172 305.656C172.339 305.198 171.583 304.578 170.906 303.797V310.375C170.906 310.802 170.75 311.167 170.438 311.469C170.135 311.781 169.771 311.938 169.344 311.938C168.917 311.938 168.547 311.781 168.234 311.469C167.932 311.167 167.781 310.802 167.781 310.375V290.422C167.781 289.995 167.932 289.63 168.234 289.328C168.547 289.016 168.917 288.859 169.344 288.859C169.771 288.859 170.089 289.016 170.297 289.328C170.516 289.63 170.656 289.995 170.719 290.422L170.906 291.688C171.5 290.833 172.281 290.161 173.25 289.672C174.229 289.182 175.203 288.938 176.172 288.938C177.349 288.938 178.432 289.172 179.422 289.641C180.422 290.109 181.292 290.75 182.031 291.562C182.771 292.365 183.344 293.286 183.75 294.328C184.156 295.37 184.359 296.469 184.359 297.625ZM176.203 292.062C175.526 292.062 174.854 292.214 174.188 292.516C173.521 292.807 172.953 293.214 172.484 293.734C172.016 294.245 171.651 294.854 171.391 295.562C171.141 296.26 171.016 296.974 171.016 297.703C171.016 298.703 171.234 299.625 171.672 300.469C172.109 301.312 172.714 301.99 173.484 302.5C174.255 303.01 175.135 303.266 176.125 303.266C177.115 303.266 177.995 303 178.766 302.469C179.536 301.927 180.141 301.229 180.578 300.375C181.026 299.51 181.25 298.594 181.25 297.625C181.25 296.646 181.031 295.734 180.594 294.891C180.156 294.047 179.557 293.365 178.797 292.844C178.036 292.323 177.172 292.062 176.203 292.062ZM188.125 283.203C188.625 283.203 189.026 283.37 189.328 283.703C189.63 284.026 189.776 284.38 189.766 284.766V304.891C189.766 305.307 189.599 305.646 189.266 305.906C188.943 306.156 188.62 306.281 188.297 306.281C187.849 306.281 187.458 306.135 187.125 305.844C186.802 305.552 186.641 305.177 186.641 304.719V284.766C186.641 284.37 186.781 284.01 187.062 283.688C187.354 283.365 187.708 283.203 188.125 283.203ZM200.594 288.891C201.792 288.891 202.906 289.12 203.938 289.578C204.979 290.036 205.891 290.672 206.672 291.484C207.453 292.297 208.062 293.229 208.5 294.281C208.948 295.333 209.172 296.453 209.172 297.641C209.172 298.807 208.948 299.917 208.5 300.969C208.052 302.01 207.432 302.932 206.641 303.734C205.859 304.526 204.948 305.151 203.906 305.609C202.875 306.068 201.771 306.297 200.594 306.297C199.427 306.297 198.323 306.073 197.281 305.625C196.25 305.177 195.339 304.557 194.547 303.766C193.766 302.974 193.151 302.057 192.703 301.016C192.255 299.964 192.031 298.839 192.031 297.641C192.031 296.453 192.255 295.333 192.703 294.281C193.151 293.229 193.766 292.302 194.547 291.5C195.339 290.688 196.25 290.052 197.281 289.594C198.312 289.125 199.417 288.891 200.594 288.891ZM195.188 297.672C195.188 298.682 195.432 299.604 195.922 300.438C196.422 301.26 197.083 301.917 197.906 302.406C198.729 302.896 199.63 303.141 200.609 303.141C201.609 303.141 202.516 302.891 203.328 302.391C204.151 301.88 204.802 301.208 205.281 300.375C205.771 299.542 206.016 298.63 206.016 297.641C206.016 296.63 205.776 295.703 205.297 294.859C204.818 294.005 204.167 293.323 203.344 292.812C202.531 292.302 201.615 292.047 200.594 292.047C199.562 292.047 198.641 292.307 197.828 292.828C197.016 293.339 196.37 294.021 195.891 294.875C195.422 295.719 195.188 296.651 195.188 297.672ZM219.672 288.812C220.443 288.812 221.193 288.969 221.922 289.281C222.661 289.583 223.318 289.969 223.891 290.438C224.474 290.896 224.906 291.37 225.188 291.859L225.359 290.359C225.359 289.932 225.484 289.568 225.734 289.266C225.984 288.953 226.323 288.797 226.75 288.797C227.177 288.797 227.542 288.953 227.844 289.266C228.156 289.568 228.312 289.932 228.312 290.359V290.391L228.281 304.859C228.281 305.286 228.125 305.656 227.812 305.969C227.51 306.271 227.146 306.422 226.719 306.422C226.292 306.422 225.953 306.271 225.703 305.969C225.453 305.656 225.328 305.286 225.328 304.859L225.156 303.609C224.615 304.536 223.823 305.229 222.781 305.688C221.74 306.135 220.693 306.359 219.641 306.359C218.464 306.359 217.359 306.13 216.328 305.672C215.297 305.203 214.391 304.562 213.609 303.75C212.828 302.938 212.214 302.005 211.766 300.953C211.328 299.901 211.109 298.792 211.109 297.625C211.109 296.469 211.323 295.365 211.75 294.312C212.188 293.25 212.792 292.307 213.562 291.484C214.344 290.651 215.25 290 216.281 289.531C217.323 289.052 218.453 288.812 219.672 288.812ZM225.062 297.594C225.062 296.573 224.823 295.635 224.344 294.781C223.875 293.927 223.234 293.24 222.422 292.719C221.609 292.198 220.682 291.938 219.641 291.938C218.62 291.938 217.698 292.198 216.875 292.719C216.052 293.24 215.401 293.932 214.922 294.797C214.443 295.651 214.203 296.578 214.203 297.578C214.203 298.589 214.448 299.526 214.938 300.391C215.427 301.245 216.083 301.932 216.906 302.453C217.74 302.974 218.656 303.234 219.656 303.234C220.656 303.234 221.562 302.974 222.375 302.453C223.198 301.932 223.849 301.245 224.328 300.391C224.818 299.526 225.062 298.594 225.062 297.594ZM230.656 297.594C230.656 296.417 230.875 295.271 231.312 294.156C231.75 293.042 232.396 292.057 233.25 291.203C234.01 290.464 234.885 289.891 235.875 289.484C236.865 289.078 237.891 288.875 238.953 288.875C240.036 288.875 241 289.104 241.844 289.562C242.688 290.021 243.443 290.641 244.109 291.422V284.844C244.109 284.417 244.26 284.052 244.562 283.75C244.875 283.438 245.245 283.281 245.672 283.281C246.099 283.281 246.464 283.438 246.766 283.75C247.078 284.052 247.234 284.417 247.234 284.844V304.797C247.234 305.224 247.078 305.594 246.766 305.906C246.464 306.208 246.099 306.359 245.672 306.359C245.245 306.359 244.922 306.208 244.703 305.906C244.495 305.594 244.359 305.224 244.297 304.797L244.109 303.531C243.516 304.385 242.729 305.057 241.75 305.547C240.781 306.036 239.812 306.281 238.844 306.281C237.667 306.281 236.578 306.047 235.578 305.578C234.589 305.109 233.724 304.474 232.984 303.672C232.245 302.859 231.672 301.932 231.266 300.891C230.859 299.849 230.656 298.75 230.656 297.594ZM238.812 303.156C239.49 303.156 240.161 303.005 240.828 302.703C241.495 302.401 242.062 301.995 242.531 301.484C243 300.964 243.359 300.354 243.609 299.656C243.87 298.958 244 298.245 244 297.516C244 296.516 243.781 295.594 243.344 294.75C242.906 293.906 242.302 293.229 241.531 292.719C240.771 292.208 239.891 291.953 238.891 291.953C237.911 291.953 237.031 292.224 236.25 292.766C235.479 293.297 234.87 293.995 234.422 294.859C233.984 295.714 233.766 296.625 233.766 297.594C233.766 298.562 233.984 299.474 234.422 300.328C234.859 301.172 235.458 301.854 236.219 302.375C236.99 302.896 237.854 303.156 238.812 303.156ZM257.906 288.938C259.292 288.938 260.562 289.281 261.719 289.969C262.875 290.656 263.802 291.583 264.5 292.75C265.208 293.906 265.562 295.193 265.562 296.609C265.562 296.901 265.547 297.198 265.516 297.5C265.474 297.885 265.297 298.214 264.984 298.484C264.682 298.745 264.339 298.875 263.953 298.875L253.031 298.891C253.208 299.641 253.542 300.344 254.031 301C254.521 301.656 255.115 302.188 255.812 302.594C256.521 303 257.292 303.203 258.125 303.203C259.021 303.203 259.823 302.984 260.531 302.547C261.24 302.109 261.792 301.604 262.188 301.031C262.312 300.833 262.5 300.667 262.75 300.531C263.01 300.396 263.255 300.328 263.484 300.328C263.911 300.328 264.276 300.484 264.578 300.797C264.891 301.109 265.047 301.479 265.047 301.906C265.047 302.24 264.953 302.536 264.766 302.797C264.12 303.745 263.229 304.568 262.094 305.266C260.969 305.953 259.661 306.297 258.172 306.297C256.974 306.297 255.859 306.062 254.828 305.594C253.807 305.125 252.917 304.484 252.156 303.672C251.396 302.859 250.802 301.927 250.375 300.875C249.958 299.812 249.75 298.693 249.75 297.516C249.75 296.38 249.958 295.302 250.375 294.281C250.792 293.25 251.37 292.333 252.109 291.531C252.859 290.729 253.729 290.099 254.719 289.641C255.708 289.172 256.771 288.938 257.906 288.938ZM262.344 295.75C262.146 294.729 261.635 293.859 260.812 293.141C259.99 292.422 259.021 292.062 257.906 292.062C256.771 292.062 255.766 292.432 254.891 293.172C254.026 293.911 253.443 294.776 253.141 295.766L262.344 295.75ZM271.109 291.359C271.672 290.807 272.344 290.26 273.125 289.719C273.917 289.177 274.833 288.906 275.875 288.906C277.24 288.906 278.375 289.271 279.281 290C280.188 290.719 280.854 291.557 281.281 292.516C281.615 293.276 281.812 294.031 281.875 294.781C281.948 295.521 281.984 296.219 281.984 296.875V304.766C281.984 305.193 281.828 305.562 281.516 305.875C281.214 306.177 280.849 306.328 280.422 306.328C279.995 306.328 279.625 306.177 279.312 305.875C279.01 305.562 278.859 305.193 278.859 304.766V296.875C278.859 296.26 278.828 295.693 278.766 295.172C278.714 294.651 278.599 294.193 278.422 293.797C278.224 293.339 277.917 292.932 277.5 292.578C277.083 292.214 276.552 292.031 275.906 292.031C274.365 292.031 273.177 292.62 272.344 293.797C271.521 294.974 271.115 296.562 271.125 298.562L271.141 304.797C271.141 305.224 270.984 305.594 270.672 305.906C270.37 306.208 270.005 306.359 269.578 306.359C269.141 306.359 268.771 306.208 268.469 305.906C268.167 305.594 268.016 305.219 268.016 304.781L267.984 290.422C267.984 289.995 268.099 289.63 268.328 289.328C268.568 289.016 268.901 288.859 269.328 288.859C269.755 288.859 270.083 289.016 270.312 289.328C270.542 289.63 270.719 289.995 270.844 290.422L271.109 291.359ZM127.672 325.281C127.193 325.281 126.802 325.135 126.5 324.844C126.198 324.542 126.042 324.172 126.031 323.734L126 322.547C126 322.151 126.177 321.833 126.531 321.594C126.885 321.344 127.224 321.219 127.547 321.219C127.984 321.219 128.349 321.37 128.641 321.672C128.943 321.974 129.099 322.339 129.109 322.766L129.125 323.703C129.125 324.109 128.99 324.474 128.719 324.797C128.448 325.12 128.099 325.281 127.672 325.281ZM125.984 328.234C125.984 327.839 126.151 327.516 126.484 327.266C126.818 327.016 127.141 326.891 127.453 326.891C127.911 326.891 128.302 327.026 128.625 327.297C128.948 327.568 129.109 327.927 129.109 328.375V328.391L129.141 342.859C129.141 343.276 128.984 343.63 128.672 343.922C128.37 344.214 128.005 344.359 127.578 344.359C127.141 344.359 126.771 344.214 126.469 343.922C126.167 343.62 126.016 343.26 126.016 342.844L125.984 328.234ZM140.031 326.859C141.521 326.859 142.87 327.188 144.078 327.844C145.297 328.49 146.198 329.365 146.781 330.469C146.906 330.688 146.969 330.938 146.969 331.219C146.969 331.646 146.812 332.016 146.5 332.328C146.198 332.63 145.833 332.781 145.406 332.781C145.146 332.781 144.875 332.698 144.594 332.531C144.323 332.354 144.13 332.151 144.016 331.922C143.672 331.276 143.156 330.792 142.469 330.469C141.781 330.146 140.964 329.984 140.016 329.984C139.464 329.984 138.839 330.057 138.141 330.203C137.443 330.349 136.839 330.583 136.328 330.906C135.818 331.229 135.562 331.667 135.562 332.219C135.562 332.625 135.771 332.948 136.188 333.188C136.615 333.417 137.135 333.594 137.75 333.719C138.375 333.844 139 333.938 139.625 334C140.25 334.052 140.76 334.099 141.156 334.141C141.927 334.224 142.688 334.354 143.438 334.531C144.188 334.698 144.875 334.948 145.5 335.281C146.125 335.615 146.62 336.068 146.984 336.641C147.359 337.214 147.547 337.943 147.547 338.828C147.547 340.089 147.182 341.12 146.453 341.922C145.724 342.724 144.792 343.318 143.656 343.703C142.521 344.089 141.333 344.281 140.094 344.281C138.396 344.281 136.849 343.948 135.453 343.281C134.068 342.604 133.042 341.62 132.375 340.328C132.25 340.078 132.188 339.833 132.188 339.594C132.188 339.167 132.339 338.802 132.641 338.5C132.953 338.188 133.323 338.031 133.75 338.031C134.021 338.031 134.292 338.12 134.562 338.297C134.844 338.464 135.042 338.667 135.156 338.906C135.562 339.698 136.188 340.271 137.031 340.625C137.885 340.979 138.901 341.156 140.078 341.156C140.703 341.156 141.349 341.089 142.016 340.953C142.693 340.807 143.26 340.562 143.719 340.219C144.188 339.875 144.422 339.406 144.422 338.812C144.422 338.354 144.219 338.026 143.812 337.828C143.417 337.62 142.938 337.484 142.375 337.422C141.823 337.359 141.307 337.302 140.828 337.25C139.911 337.156 138.964 337.036 137.984 336.891C137.005 336.734 136.094 336.49 135.25 336.156C134.417 335.823 133.74 335.344 133.219 334.719C132.698 334.094 132.438 333.26 132.438 332.219C132.438 331.281 132.661 330.474 133.109 329.797C133.568 329.12 134.172 328.568 134.922 328.141C135.672 327.703 136.49 327.38 137.375 327.172C138.271 326.964 139.156 326.859 140.031 326.859ZM173.594 326.828C174.021 326.828 174.385 326.984 174.688 327.297C175 327.599 175.156 327.964 175.156 328.391V328.422L175.047 343.344C175.036 344.51 174.797 345.609 174.328 346.641C173.87 347.672 173.234 348.583 172.422 349.375C171.609 350.167 170.677 350.786 169.625 351.234C168.583 351.682 167.474 351.906 166.297 351.906C164.974 351.906 163.708 351.615 162.5 351.031C161.302 350.458 160.286 349.651 159.453 348.609C159.214 348.307 159.094 347.974 159.094 347.609C159.094 347.182 159.245 346.812 159.547 346.5C159.859 346.198 160.229 346.047 160.656 346.047C160.865 346.047 161.089 346.104 161.328 346.219C161.578 346.333 161.771 346.479 161.906 346.656C162.427 347.302 163.083 347.818 163.875 348.203C164.677 348.589 165.49 348.781 166.312 348.781C167.323 348.781 168.25 348.531 169.094 348.031C169.948 347.531 170.63 346.865 171.141 346.031C171.661 345.198 171.922 344.286 171.922 343.297V341.766C171.307 342.724 170.562 343.385 169.688 343.75C168.823 344.104 167.938 344.281 167.031 344.281C165.896 344.281 164.839 344.036 163.859 343.547C162.891 343.057 162.047 342.396 161.328 341.562C160.609 340.729 160.047 339.786 159.641 338.734C159.245 337.672 159.047 336.578 159.047 335.453C159.047 334.328 159.245 333.255 159.641 332.234C160.047 331.203 160.609 330.286 161.328 329.484C162.047 328.682 162.891 328.047 163.859 327.578C164.828 327.109 165.885 326.875 167.031 326.875C168.021 326.875 168.948 327.104 169.812 327.562C170.677 328.021 171.411 328.719 172.016 329.656L172.25 328.406C172.333 327.979 172.469 327.609 172.656 327.297C172.844 326.984 173.156 326.828 173.594 326.828ZM171.891 335.469C171.891 334.521 171.682 333.635 171.266 332.812C170.849 331.979 170.276 331.302 169.547 330.781C168.828 330.26 168.005 330 167.078 330C166.13 330 165.286 330.26 164.547 330.781C163.818 331.292 163.24 331.964 162.812 332.797C162.396 333.62 162.188 334.505 162.188 335.453C162.188 336.391 162.396 337.297 162.812 338.172C163.229 339.036 163.802 339.75 164.531 340.312C165.26 340.875 166.094 341.156 167.031 341.156C167.958 341.156 168.786 340.88 169.516 340.328C170.255 339.776 170.833 339.068 171.25 338.203C171.677 337.328 171.891 336.417 171.891 335.469ZM185.812 326.938C187.198 326.938 188.469 327.281 189.625 327.969C190.781 328.656 191.708 329.583 192.406 330.75C193.115 331.906 193.469 333.193 193.469 334.609C193.469 334.901 193.453 335.198 193.422 335.5C193.38 335.885 193.203 336.214 192.891 336.484C192.589 336.745 192.245 336.875 191.859 336.875L180.938 336.891C181.115 337.641 181.448 338.344 181.938 339C182.427 339.656 183.021 340.188 183.719 340.594C184.427 341 185.198 341.203 186.031 341.203C186.927 341.203 187.729 340.984 188.438 340.547C189.146 340.109 189.698 339.604 190.094 339.031C190.219 338.833 190.406 338.667 190.656 338.531C190.917 338.396 191.161 338.328 191.391 338.328C191.818 338.328 192.182 338.484 192.484 338.797C192.797 339.109 192.953 339.479 192.953 339.906C192.953 340.24 192.859 340.536 192.672 340.797C192.026 341.745 191.135 342.568 190 343.266C188.875 343.953 187.568 344.297 186.078 344.297C184.88 344.297 183.766 344.062 182.734 343.594C181.714 343.125 180.823 342.484 180.062 341.672C179.302 340.859 178.708 339.927 178.281 338.875C177.865 337.812 177.656 336.693 177.656 335.516C177.656 334.38 177.865 333.302 178.281 332.281C178.698 331.25 179.276 330.333 180.016 329.531C180.766 328.729 181.635 328.099 182.625 327.641C183.615 327.172 184.677 326.938 185.812 326.938ZM190.25 333.75C190.052 332.729 189.542 331.859 188.719 331.141C187.896 330.422 186.927 330.062 185.812 330.062C184.677 330.062 183.672 330.432 182.797 331.172C181.932 331.911 181.349 332.776 181.047 333.766L190.25 333.75ZM197.375 321.203C197.875 321.203 198.276 321.37 198.578 321.703C198.88 322.026 199.026 322.38 199.016 322.766V342.891C199.016 343.307 198.849 343.646 198.516 343.906C198.193 344.156 197.87 344.281 197.547 344.281C197.099 344.281 196.708 344.135 196.375 343.844C196.052 343.552 195.891 343.177 195.891 342.719V322.766C195.891 322.37 196.031 322.01 196.312 321.688C196.604 321.365 196.958 321.203 197.375 321.203ZM212.875 341.891C212.312 342.443 211.635 342.99 210.844 343.531C210.062 344.073 209.151 344.344 208.109 344.344C206.745 344.344 205.609 343.984 204.703 343.266C203.797 342.536 203.13 341.693 202.703 340.734C202.37 339.974 202.167 339.224 202.094 338.484C202.031 337.734 202 337.031 202 336.375V328.484C202 328.057 202.151 327.693 202.453 327.391C202.766 327.078 203.135 326.922 203.562 326.922C203.99 326.922 204.354 327.078 204.656 327.391C204.969 327.693 205.125 328.057 205.125 328.484V336.375C205.125 336.99 205.151 337.557 205.203 338.078C205.266 338.599 205.385 339.057 205.562 339.453C205.76 339.911 206.068 340.323 206.484 340.688C206.901 341.042 207.432 341.219 208.078 341.219C209.62 341.219 210.802 340.63 211.625 339.453C212.458 338.276 212.87 336.688 212.859 334.688L212.844 328.453C212.844 328.026 212.995 327.661 213.297 327.359C213.609 327.047 213.979 326.891 214.406 326.891C214.844 326.891 215.214 327.047 215.516 327.359C215.818 327.661 215.969 328.031 215.969 328.469L216 342.828C216 343.255 215.88 343.625 215.641 343.938C215.411 344.24 215.083 344.391 214.656 344.391C214.229 344.391 213.901 344.24 213.672 343.938C213.443 343.625 213.266 343.255 213.141 342.828L212.875 341.891ZM218.953 322.781C218.953 322.354 219.104 321.99 219.406 321.688C219.719 321.375 220.089 321.219 220.516 321.219C220.943 321.219 221.307 321.375 221.609 321.688C221.922 321.99 222.078 322.354 222.078 322.781V333.953L228.406 327.375C228.698 327.042 229.078 326.875 229.547 326.875C229.974 326.875 230.339 327.031 230.641 327.344C230.953 327.646 231.109 328.01 231.109 328.438C231.109 328.875 230.958 329.245 230.656 329.547L225.594 334.812L230.922 341.812C231.141 342.083 231.25 342.406 231.25 342.781C231.25 343.208 231.094 343.578 230.781 343.891C230.479 344.193 230.115 344.344 229.688 344.344C229.469 344.344 229.24 344.276 229 344.141C228.76 344.016 228.573 343.87 228.438 343.703L223.406 337.078L222.078 338.453V342.734C222.078 343.161 221.922 343.531 221.609 343.844C221.307 344.146 220.943 344.297 220.516 344.297C220.089 344.297 219.719 344.146 219.406 343.844C219.104 343.531 218.953 343.161 218.953 342.734V322.781ZM235.938 324.094C235.938 323.667 236.089 323.302 236.391 323C236.693 322.688 237.062 322.531 237.5 322.531C237.927 322.531 238.292 322.688 238.594 323C238.906 323.302 239.062 323.667 239.062 324.094V327.203H241.156C241.562 327.203 241.911 327.349 242.203 327.641C242.495 327.932 242.641 328.281 242.641 328.688C242.641 329.094 242.495 329.443 242.203 329.734C241.911 330.026 241.562 330.172 241.156 330.172H239.047L239.031 339.844V339.875C239.031 340.385 239.089 340.74 239.203 340.938C239.318 341.125 239.552 341.219 239.906 341.219C240.354 341.219 240.75 341.099 241.094 340.859C241.219 340.776 241.37 340.703 241.547 340.641C241.724 340.568 241.896 340.531 242.062 340.531C242.49 340.531 242.854 340.682 243.156 340.984C243.469 341.286 243.625 341.651 243.625 342.078C243.625 342.589 243.417 343 243 343.312C242.604 343.615 242.151 343.865 241.641 344.062C241.13 344.26 240.583 344.359 240 344.359C238.688 344.359 237.677 343.958 236.969 343.156C236.26 342.344 235.906 341.333 235.906 340.125V339.984L235.922 330.188H233.906C233.5 330.188 233.151 330.042 232.859 329.75C232.568 329.458 232.422 329.109 232.422 328.703C232.422 328.297 232.568 327.948 232.859 327.656C233.151 327.365 233.5 327.219 233.906 327.219H235.938V324.094ZM246.656 322.75H246.672C247.057 322.75 247.427 322.885 247.781 323.156C248.135 323.417 248.312 323.766 248.312 324.203L247.875 337.5C247.875 337.875 247.781 338.214 247.594 338.516C247.406 338.807 247.099 338.953 246.672 338.953C246.255 338.953 245.953 338.807 245.766 338.516C245.578 338.214 245.484 337.875 245.484 337.5L245.016 324.203C245.016 323.766 245.193 323.417 245.547 323.156C245.911 322.896 246.281 322.76 246.656 322.75ZM246.75 340.547C247.271 340.547 247.714 340.734 248.078 341.109C248.453 341.474 248.641 341.917 248.641 342.438C248.641 342.958 248.453 343.406 248.078 343.781C247.714 344.146 247.271 344.328 246.75 344.328C246.229 344.328 245.781 344.146 245.406 343.781C245.042 343.406 244.859 342.958 244.859 342.438C244.859 341.917 245.042 341.474 245.406 341.109C245.781 340.734 246.229 340.547 246.75 340.547ZM114.047 385.438V385.234L114.031 376.219C114.031 375.792 114.182 375.427 114.484 375.125C114.786 374.823 115.146 374.667 115.562 374.656L119.672 374.578C119.901 374.568 120.125 374.562 120.344 374.562C120.562 374.562 120.776 374.562 120.984 374.562C122.13 374.562 123.245 374.688 124.328 374.938C125.411 375.188 126.38 375.573 127.234 376.094C128.099 376.615 128.781 377.292 129.281 378.125C129.792 378.948 130.047 379.938 130.047 381.094C130.047 382.594 129.531 383.885 128.5 384.969C129.229 385.5 129.823 386.203 130.281 387.078C130.74 387.943 130.969 388.948 130.969 390.094C130.969 391.573 130.651 392.823 130.016 393.844C129.38 394.854 128.505 395.625 127.391 396.156C126.276 396.688 124.995 396.969 123.547 397L115.656 397.016H115.625C115.198 397.016 114.828 396.865 114.516 396.562C114.214 396.25 114.062 395.88 114.062 395.453L114.047 385.438ZM126.922 381.188C126.922 380.24 126.599 379.516 125.953 379.016C125.318 378.505 124.516 378.156 123.547 377.969C122.589 377.781 121.62 377.688 120.641 377.688C120.495 377.688 120.344 377.693 120.188 377.703C120.031 377.703 119.88 377.703 119.734 377.703L117.156 377.75L117.172 383.766L123.188 383.672C123.823 383.661 124.422 383.589 124.984 383.453C125.557 383.307 126.021 383.057 126.375 382.703C126.74 382.339 126.922 381.833 126.922 381.188ZM123.484 393.875C124.88 393.854 125.953 393.557 126.703 392.984C127.464 392.401 127.844 391.411 127.844 390.016C127.844 388.776 127.432 387.932 126.609 387.484C125.786 387.026 124.734 386.797 123.453 386.797H123.25L117.172 386.891L117.188 393.859L123.484 393.875ZM141.625 379.938C143.01 379.938 144.281 380.281 145.438 380.969C146.594 381.656 147.521 382.583 148.219 383.75C148.927 384.906 149.281 386.193 149.281 387.609C149.281 387.901 149.266 388.198 149.234 388.5C149.193 388.885 149.016 389.214 148.703 389.484C148.401 389.745 148.057 389.875 147.672 389.875L136.75 389.891C136.927 390.641 137.26 391.344 137.75 392C138.24 392.656 138.833 393.188 139.531 393.594C140.24 394 141.01 394.203 141.844 394.203C142.74 394.203 143.542 393.984 144.25 393.547C144.958 393.109 145.51 392.604 145.906 392.031C146.031 391.833 146.219 391.667 146.469 391.531C146.729 391.396 146.974 391.328 147.203 391.328C147.63 391.328 147.995 391.484 148.297 391.797C148.609 392.109 148.766 392.479 148.766 392.906C148.766 393.24 148.672 393.536 148.484 393.797C147.839 394.745 146.948 395.568 145.812 396.266C144.688 396.953 143.38 397.297 141.891 397.297C140.693 397.297 139.578 397.062 138.547 396.594C137.526 396.125 136.635 395.484 135.875 394.672C135.115 393.859 134.521 392.927 134.094 391.875C133.677 390.812 133.469 389.693 133.469 388.516C133.469 387.38 133.677 386.302 134.094 385.281C134.51 384.25 135.089 383.333 135.828 382.531C136.578 381.729 137.448 381.099 138.438 380.641C139.427 380.172 140.49 379.938 141.625 379.938ZM146.062 386.75C145.865 385.729 145.354 384.859 144.531 384.141C143.708 383.422 142.74 383.062 141.625 383.062C140.49 383.062 139.484 383.432 138.609 384.172C137.745 384.911 137.161 385.776 136.859 386.766L146.062 386.75ZM151.703 375.781C151.703 375.354 151.854 374.99 152.156 374.688C152.469 374.375 152.839 374.219 153.266 374.219C153.693 374.219 154.057 374.375 154.359 374.688C154.672 374.99 154.828 375.354 154.828 375.781V386.953L161.156 380.375C161.448 380.042 161.828 379.875 162.297 379.875C162.724 379.875 163.089 380.031 163.391 380.344C163.703 380.646 163.859 381.01 163.859 381.438C163.859 381.875 163.708 382.245 163.406 382.547L158.344 387.812L163.672 394.812C163.891 395.083 164 395.406 164 395.781C164 396.208 163.844 396.578 163.531 396.891C163.229 397.193 162.865 397.344 162.438 397.344C162.219 397.344 161.99 397.276 161.75 397.141C161.51 397.016 161.323 396.87 161.188 396.703L156.156 390.078L154.828 391.453V395.734C154.828 396.161 154.672 396.531 154.359 396.844C154.057 397.146 153.693 397.297 153.266 397.297C152.839 397.297 152.469 397.146 152.156 396.844C151.854 396.531 151.703 396.161 151.703 395.734V375.781ZM167.953 378.281C167.474 378.281 167.083 378.135 166.781 377.844C166.479 377.542 166.323 377.172 166.312 376.734L166.281 375.547C166.281 375.151 166.458 374.833 166.812 374.594C167.167 374.344 167.505 374.219 167.828 374.219C168.266 374.219 168.63 374.37 168.922 374.672C169.224 374.974 169.38 375.339 169.391 375.766L169.406 376.703C169.406 377.109 169.271 377.474 169 377.797C168.729 378.12 168.38 378.281 167.953 378.281ZM166.266 381.234C166.266 380.839 166.432 380.516 166.766 380.266C167.099 380.016 167.422 379.891 167.734 379.891C168.193 379.891 168.583 380.026 168.906 380.297C169.229 380.568 169.391 380.927 169.391 381.375V381.391L169.422 395.859C169.422 396.276 169.266 396.63 168.953 396.922C168.651 397.214 168.286 397.359 167.859 397.359C167.422 397.359 167.052 397.214 166.75 396.922C166.448 396.62 166.297 396.26 166.297 395.844L166.266 381.234ZM177.281 376.781C177.281 377.135 177.12 377.427 176.797 377.656C176.474 377.875 176.167 377.984 175.875 377.984C175.479 377.984 175.146 377.849 174.875 377.578C174.615 377.297 174.479 376.969 174.469 376.594L174.438 375.703V375.469C174.438 375.115 174.599 374.823 174.922 374.594C175.245 374.365 175.552 374.25 175.844 374.25C176.24 374.25 176.568 374.391 176.828 374.672C177.099 374.943 177.24 375.266 177.25 375.641L177.281 376.547V376.781ZM175.797 379.906C176.141 379.906 176.495 380.016 176.859 380.234C177.234 380.443 177.422 380.766 177.422 381.203L177.484 396.578C177.484 397.964 177.276 399.26 176.859 400.469C176.443 401.677 175.776 402.651 174.859 403.391C173.953 404.141 172.76 404.516 171.281 404.516C170.927 404.516 170.568 404.479 170.203 404.406C169.828 404.344 169.458 404.234 169.094 404.078C168.479 403.828 168.172 403.328 168.172 402.578C168.172 402.245 168.318 401.932 168.609 401.641C168.901 401.359 169.214 401.219 169.547 401.219C169.839 401.219 170.073 401.26 170.25 401.344C170.615 401.5 170.979 401.578 171.344 401.578C172.156 401.578 172.792 401.344 173.25 400.875C173.708 400.406 174.031 399.771 174.219 398.969C174.417 398.167 174.516 397.276 174.516 396.297L174.453 381.156C174.453 380.844 174.604 380.557 174.906 380.297C175.208 380.036 175.505 379.906 175.797 379.906ZM180.453 375.781C180.453 375.354 180.604 374.99 180.906 374.688C181.219 374.375 181.589 374.219 182.016 374.219C182.443 374.219 182.807 374.375 183.109 374.688C183.422 374.99 183.578 375.354 183.578 375.781V386.953L189.906 380.375C190.198 380.042 190.578 379.875 191.047 379.875C191.474 379.875 191.839 380.031 192.141 380.344C192.453 380.646 192.609 381.01 192.609 381.438C192.609 381.875 192.458 382.245 192.156 382.547L187.094 387.812L192.422 394.812C192.641 395.083 192.75 395.406 192.75 395.781C192.75 396.208 192.594 396.578 192.281 396.891C191.979 397.193 191.615 397.344 191.188 397.344C190.969 397.344 190.74 397.276 190.5 397.141C190.26 397.016 190.073 396.87 189.938 396.703L184.906 390.078L183.578 391.453V395.734C183.578 396.161 183.422 396.531 183.109 396.844C182.807 397.146 182.443 397.297 182.016 397.297C181.589 397.297 181.219 397.146 180.906 396.844C180.604 396.531 180.453 396.161 180.453 395.734V375.781ZM211.688 379.859C213.177 379.859 214.526 380.188 215.734 380.844C216.953 381.49 217.854 382.365 218.438 383.469C218.562 383.688 218.625 383.938 218.625 384.219C218.625 384.646 218.469 385.016 218.156 385.328C217.854 385.63 217.49 385.781 217.062 385.781C216.802 385.781 216.531 385.698 216.25 385.531C215.979 385.354 215.786 385.151 215.672 384.922C215.328 384.276 214.812 383.792 214.125 383.469C213.438 383.146 212.62 382.984 211.672 382.984C211.12 382.984 210.495 383.057 209.797 383.203C209.099 383.349 208.495 383.583 207.984 383.906C207.474 384.229 207.219 384.667 207.219 385.219C207.219 385.625 207.427 385.948 207.844 386.188C208.271 386.417 208.792 386.594 209.406 386.719C210.031 386.844 210.656 386.938 211.281 387C211.906 387.052 212.417 387.099 212.812 387.141C213.583 387.224 214.344 387.354 215.094 387.531C215.844 387.698 216.531 387.948 217.156 388.281C217.781 388.615 218.276 389.068 218.641 389.641C219.016 390.214 219.203 390.943 219.203 391.828C219.203 393.089 218.839 394.12 218.109 394.922C217.38 395.724 216.448 396.318 215.312 396.703C214.177 397.089 212.99 397.281 211.75 397.281C210.052 397.281 208.505 396.948 207.109 396.281C205.724 395.604 204.698 394.62 204.031 393.328C203.906 393.078 203.844 392.833 203.844 392.594C203.844 392.167 203.995 391.802 204.297 391.5C204.609 391.188 204.979 391.031 205.406 391.031C205.677 391.031 205.948 391.12 206.219 391.297C206.5 391.464 206.698 391.667 206.812 391.906C207.219 392.698 207.844 393.271 208.688 393.625C209.542 393.979 210.557 394.156 211.734 394.156C212.359 394.156 213.005 394.089 213.672 393.953C214.349 393.807 214.917 393.562 215.375 393.219C215.844 392.875 216.078 392.406 216.078 391.812C216.078 391.354 215.875 391.026 215.469 390.828C215.073 390.62 214.594 390.484 214.031 390.422C213.479 390.359 212.964 390.302 212.484 390.25C211.568 390.156 210.62 390.036 209.641 389.891C208.661 389.734 207.75 389.49 206.906 389.156C206.073 388.823 205.396 388.344 204.875 387.719C204.354 387.094 204.094 386.26 204.094 385.219C204.094 384.281 204.318 383.474 204.766 382.797C205.224 382.12 205.828 381.568 206.578 381.141C207.328 380.703 208.146 380.38 209.031 380.172C209.927 379.964 210.812 379.859 211.688 379.859ZM225.391 382.359C225.953 381.807 226.625 381.26 227.406 380.719C228.198 380.177 229.115 379.906 230.156 379.906C231.521 379.906 232.656 380.271 233.562 381C234.469 381.719 235.135 382.557 235.562 383.516C235.896 384.276 236.094 385.031 236.156 385.781C236.229 386.521 236.266 387.219 236.266 387.875V395.766C236.266 396.193 236.109 396.562 235.797 396.875C235.495 397.177 235.13 397.328 234.703 397.328C234.276 397.328 233.906 397.177 233.594 396.875C233.292 396.562 233.141 396.193 233.141 395.766V387.875C233.141 387.26 233.109 386.693 233.047 386.172C232.995 385.651 232.88 385.193 232.703 384.797C232.505 384.339 232.198 383.932 231.781 383.578C231.365 383.214 230.833 383.031 230.188 383.031C228.646 383.031 227.458 383.62 226.625 384.797C225.802 385.974 225.396 387.562 225.406 389.562L225.422 395.797C225.422 396.224 225.266 396.594 224.953 396.906C224.651 397.208 224.286 397.359 223.859 397.359C223.422 397.359 223.052 397.208 222.75 396.906C222.448 396.594 222.297 396.219 222.297 395.781L222.266 381.422C222.266 380.995 222.38 380.63 222.609 380.328C222.849 380.016 223.182 379.859 223.609 379.859C224.036 379.859 224.365 380.016 224.594 380.328C224.823 380.63 225 380.995 225.125 381.422L225.391 382.359ZM246.844 379.938C248.229 379.938 249.5 380.281 250.656 380.969C251.812 381.656 252.74 382.583 253.438 383.75C254.146 384.906 254.5 386.193 254.5 387.609C254.5 387.901 254.484 388.198 254.453 388.5C254.411 388.885 254.234 389.214 253.922 389.484C253.62 389.745 253.276 389.875 252.891 389.875L241.969 389.891C242.146 390.641 242.479 391.344 242.969 392C243.458 392.656 244.052 393.188 244.75 393.594C245.458 394 246.229 394.203 247.062 394.203C247.958 394.203 248.76 393.984 249.469 393.547C250.177 393.109 250.729 392.604 251.125 392.031C251.25 391.833 251.438 391.667 251.688 391.531C251.948 391.396 252.193 391.328 252.422 391.328C252.849 391.328 253.214 391.484 253.516 391.797C253.828 392.109 253.984 392.479 253.984 392.906C253.984 393.24 253.891 393.536 253.703 393.797C253.057 394.745 252.167 395.568 251.031 396.266C249.906 396.953 248.599 397.297 247.109 397.297C245.911 397.297 244.797 397.062 243.766 396.594C242.745 396.125 241.854 395.484 241.094 394.672C240.333 393.859 239.74 392.927 239.312 391.875C238.896 390.812 238.688 389.693 238.688 388.516C238.688 387.38 238.896 386.302 239.312 385.281C239.729 384.25 240.307 383.333 241.047 382.531C241.797 381.729 242.667 381.099 243.656 380.641C244.646 380.172 245.708 379.938 246.844 379.938ZM251.281 386.75C251.083 385.729 250.573 384.859 249.75 384.141C248.927 383.422 247.958 383.062 246.844 383.062C245.708 383.062 244.703 383.432 243.828 384.172C242.964 384.911 242.38 385.776 242.078 386.766L251.281 386.75ZM258.406 374.203C258.906 374.203 259.307 374.37 259.609 374.703C259.911 375.026 260.057 375.38 260.047 375.766V395.891C260.047 396.307 259.88 396.646 259.547 396.906C259.224 397.156 258.901 397.281 258.578 397.281C258.13 397.281 257.74 397.135 257.406 396.844C257.083 396.552 256.922 396.177 256.922 395.719V375.766C256.922 375.37 257.062 375.01 257.344 374.688C257.635 374.365 257.99 374.203 258.406 374.203ZM112.656 414.781C112.656 415.135 112.495 415.427 112.172 415.656C111.849 415.875 111.542 415.984 111.25 415.984C110.854 415.984 110.521 415.849 110.25 415.578C109.99 415.297 109.854 414.969 109.844 414.594L109.812 413.703V413.469C109.812 413.115 109.974 412.823 110.297 412.594C110.62 412.365 110.927 412.25 111.219 412.25C111.615 412.25 111.943 412.391 112.203 412.672C112.474 412.943 112.615 413.266 112.625 413.641L112.656 414.547V414.781ZM111.172 417.906C111.516 417.906 111.87 418.016 112.234 418.234C112.609 418.443 112.797 418.766 112.797 419.203L112.859 434.578C112.859 435.964 112.651 437.26 112.234 438.469C111.818 439.677 111.151 440.651 110.234 441.391C109.328 442.141 108.135 442.516 106.656 442.516C106.302 442.516 105.943 442.479 105.578 442.406C105.203 442.344 104.833 442.234 104.469 442.078C103.854 441.828 103.547 441.328 103.547 440.578C103.547 440.245 103.693 439.932 103.984 439.641C104.276 439.359 104.589 439.219 104.922 439.219C105.214 439.219 105.448 439.26 105.625 439.344C105.99 439.5 106.354 439.578 106.719 439.578C107.531 439.578 108.167 439.344 108.625 438.875C109.083 438.406 109.406 437.771 109.594 436.969C109.792 436.167 109.891 435.276 109.891 434.297L109.828 419.156C109.828 418.844 109.979 418.557 110.281 418.297C110.583 418.036 110.88 417.906 111.172 417.906ZM123.688 417.891C124.885 417.891 126 418.12 127.031 418.578C128.073 419.036 128.984 419.672 129.766 420.484C130.547 421.297 131.156 422.229 131.594 423.281C132.042 424.333 132.266 425.453 132.266 426.641C132.266 427.807 132.042 428.917 131.594 429.969C131.146 431.01 130.526 431.932 129.734 432.734C128.953 433.526 128.042 434.151 127 434.609C125.969 435.068 124.865 435.297 123.688 435.297C122.521 435.297 121.417 435.073 120.375 434.625C119.344 434.177 118.432 433.557 117.641 432.766C116.859 431.974 116.245 431.057 115.797 430.016C115.349 428.964 115.125 427.839 115.125 426.641C115.125 425.453 115.349 424.333 115.797 423.281C116.245 422.229 116.859 421.302 117.641 420.5C118.432 419.688 119.344 419.052 120.375 418.594C121.406 418.125 122.51 417.891 123.688 417.891ZM118.281 426.672C118.281 427.682 118.526 428.604 119.016 429.438C119.516 430.26 120.177 430.917 121 431.406C121.823 431.896 122.724 432.141 123.703 432.141C124.703 432.141 125.609 431.891 126.422 431.391C127.245 430.88 127.896 430.208 128.375 429.375C128.865 428.542 129.109 427.63 129.109 426.641C129.109 425.63 128.87 424.703 128.391 423.859C127.911 423.005 127.26 422.323 126.438 421.812C125.625 421.302 124.708 421.047 123.688 421.047C122.656 421.047 121.734 421.307 120.922 421.828C120.109 422.339 119.464 423.021 118.984 423.875C118.516 424.719 118.281 425.651 118.281 426.672ZM145.406 432.891C144.844 433.443 144.167 433.99 143.375 434.531C142.594 435.073 141.682 435.344 140.641 435.344C139.276 435.344 138.141 434.984 137.234 434.266C136.328 433.536 135.661 432.693 135.234 431.734C134.901 430.974 134.698 430.224 134.625 429.484C134.562 428.734 134.531 428.031 134.531 427.375V419.484C134.531 419.057 134.682 418.693 134.984 418.391C135.297 418.078 135.667 417.922 136.094 417.922C136.521 417.922 136.885 418.078 137.188 418.391C137.5 418.693 137.656 419.057 137.656 419.484V427.375C137.656 427.99 137.682 428.557 137.734 429.078C137.797 429.599 137.917 430.057 138.094 430.453C138.292 430.911 138.599 431.323 139.016 431.688C139.432 432.042 139.964 432.219 140.609 432.219C142.151 432.219 143.333 431.63 144.156 430.453C144.99 429.276 145.401 427.688 145.391 425.688L145.375 419.453C145.375 419.026 145.526 418.661 145.828 418.359C146.141 418.047 146.51 417.891 146.938 417.891C147.375 417.891 147.745 418.047 148.047 418.359C148.349 418.661 148.5 419.031 148.5 419.469L148.531 433.828C148.531 434.255 148.411 434.625 148.172 434.938C147.943 435.24 147.615 435.391 147.188 435.391C146.76 435.391 146.432 435.24 146.203 434.938C145.974 434.625 145.797 434.255 145.672 433.828L145.406 432.891ZM150.781 419.172C150.781 418.828 150.932 418.526 151.234 418.266C151.536 418.005 151.859 417.875 152.203 417.875C152.557 417.875 152.87 417.974 153.141 418.172C153.422 418.37 153.604 418.615 153.688 418.906L156.812 429.516L160.516 419.109H160.531C160.792 418.651 161.25 418.422 161.906 418.422C162.208 418.422 162.49 418.49 162.75 418.625C163.01 418.75 163.193 418.917 163.297 419.125V419.141L166.891 429.266L169.781 418.922C169.865 418.641 170.036 418.396 170.297 418.188C170.557 417.979 170.875 417.875 171.25 417.875C171.583 417.875 171.906 418 172.219 418.25C172.531 418.49 172.688 418.792 172.688 419.156C172.688 419.385 172.667 419.568 172.625 419.703L168.531 434.141C168.458 434.401 168.286 434.646 168.016 434.875C167.755 435.094 167.453 435.203 167.109 435.203C166.786 435.203 166.495 435.115 166.234 434.938C165.984 434.75 165.807 434.531 165.703 434.281L161.922 423.828L158.078 434.375C157.974 434.656 157.786 434.88 157.516 435.047C157.255 435.224 156.969 435.312 156.656 435.312C156.333 435.312 156.036 435.214 155.766 435.016C155.505 434.818 155.333 434.573 155.25 434.281L150.828 419.719C150.797 419.562 150.781 419.38 150.781 419.172ZM196.75 417.891C197.125 417.891 197.464 418.042 197.766 418.344C198.078 418.646 198.234 418.979 198.234 419.344C198.234 419.667 198.182 419.932 198.078 420.141L191.484 434.406C191.203 435 190.724 435.297 190.047 435.297C189.349 435.297 188.88 434.979 188.641 434.344L182.734 420.078C182.651 419.901 182.609 419.656 182.609 419.344C182.609 419.01 182.75 418.688 183.031 418.375C183.323 418.052 183.646 417.891 184 417.891C184.812 417.891 185.354 418.214 185.625 418.859L190.172 429.922L195.25 418.797C195.531 418.193 196.031 417.891 196.75 417.891ZM201.797 416.281C201.318 416.281 200.927 416.135 200.625 415.844C200.323 415.542 200.167 415.172 200.156 414.734L200.125 413.547C200.125 413.151 200.302 412.833 200.656 412.594C201.01 412.344 201.349 412.219 201.672 412.219C202.109 412.219 202.474 412.37 202.766 412.672C203.068 412.974 203.224 413.339 203.234 413.766L203.25 414.703C203.25 415.109 203.115 415.474 202.844 415.797C202.573 416.12 202.224 416.281 201.797 416.281ZM200.109 419.234C200.109 418.839 200.276 418.516 200.609 418.266C200.943 418.016 201.266 417.891 201.578 417.891C202.036 417.891 202.427 418.026 202.75 418.297C203.073 418.568 203.234 418.927 203.234 419.375V419.391L203.266 433.859C203.266 434.276 203.109 434.63 202.797 434.922C202.495 435.214 202.13 435.359 201.703 435.359C201.266 435.359 200.896 435.214 200.594 434.922C200.292 434.62 200.141 434.26 200.141 433.844L200.109 419.234ZM205.531 426.594C205.531 425.417 205.75 424.271 206.188 423.156C206.625 422.042 207.271 421.057 208.125 420.203C208.885 419.464 209.76 418.891 210.75 418.484C211.74 418.078 212.766 417.875 213.828 417.875C214.911 417.875 215.875 418.104 216.719 418.562C217.562 419.021 218.318 419.641 218.984 420.422V413.844C218.984 413.417 219.135 413.052 219.438 412.75C219.75 412.438 220.12 412.281 220.547 412.281C220.974 412.281 221.339 412.438 221.641 412.75C221.953 413.052 222.109 413.417 222.109 413.844V433.797C222.109 434.224 221.953 434.594 221.641 434.906C221.339 435.208 220.974 435.359 220.547 435.359C220.12 435.359 219.797 435.208 219.578 434.906C219.37 434.594 219.234 434.224 219.172 433.797L218.984 432.531C218.391 433.385 217.604 434.057 216.625 434.547C215.656 435.036 214.688 435.281 213.719 435.281C212.542 435.281 211.453 435.047 210.453 434.578C209.464 434.109 208.599 433.474 207.859 432.672C207.12 431.859 206.547 430.932 206.141 429.891C205.734 428.849 205.531 427.75 205.531 426.594ZM213.688 432.156C214.365 432.156 215.036 432.005 215.703 431.703C216.37 431.401 216.938 430.995 217.406 430.484C217.875 429.964 218.234 429.354 218.484 428.656C218.745 427.958 218.875 427.245 218.875 426.516C218.875 425.516 218.656 424.594 218.219 423.75C217.781 422.906 217.177 422.229 216.406 421.719C215.646 421.208 214.766 420.953 213.766 420.953C212.786 420.953 211.906 421.224 211.125 421.766C210.354 422.297 209.745 422.995 209.297 423.859C208.859 424.714 208.641 425.625 208.641 426.594C208.641 427.562 208.859 428.474 209.297 429.328C209.734 430.172 210.333 430.854 211.094 431.375C211.865 431.896 212.729 432.156 213.688 432.156ZM232.781 417.938C234.167 417.938 235.438 418.281 236.594 418.969C237.75 419.656 238.677 420.583 239.375 421.75C240.083 422.906 240.438 424.193 240.438 425.609C240.438 425.901 240.422 426.198 240.391 426.5C240.349 426.885 240.172 427.214 239.859 427.484C239.557 427.745 239.214 427.875 238.828 427.875L227.906 427.891C228.083 428.641 228.417 429.344 228.906 430C229.396 430.656 229.99 431.188 230.688 431.594C231.396 432 232.167 432.203 233 432.203C233.896 432.203 234.698 431.984 235.406 431.547C236.115 431.109 236.667 430.604 237.062 430.031C237.188 429.833 237.375 429.667 237.625 429.531C237.885 429.396 238.13 429.328 238.359 429.328C238.786 429.328 239.151 429.484 239.453 429.797C239.766 430.109 239.922 430.479 239.922 430.906C239.922 431.24 239.828 431.536 239.641 431.797C238.995 432.745 238.104 433.568 236.969 434.266C235.844 434.953 234.536 435.297 233.047 435.297C231.849 435.297 230.734 435.062 229.703 434.594C228.682 434.125 227.792 433.484 227.031 432.672C226.271 431.859 225.677 430.927 225.25 429.875C224.833 428.812 224.625 427.693 224.625 426.516C224.625 425.38 224.833 424.302 225.25 423.281C225.667 422.25 226.245 421.333 226.984 420.531C227.734 419.729 228.604 419.099 229.594 418.641C230.583 418.172 231.646 417.938 232.781 417.938ZM237.219 424.75C237.021 423.729 236.51 422.859 235.688 422.141C234.865 421.422 233.896 421.062 232.781 421.062C231.646 421.062 230.641 421.432 229.766 422.172C228.901 422.911 228.318 423.776 228.016 424.766L237.219 424.75ZM250.719 417.891C251.917 417.891 253.031 418.12 254.062 418.578C255.104 419.036 256.016 419.672 256.797 420.484C257.578 421.297 258.188 422.229 258.625 423.281C259.073 424.333 259.297 425.453 259.297 426.641C259.297 427.807 259.073 428.917 258.625 429.969C258.177 431.01 257.557 431.932 256.766 432.734C255.984 433.526 255.073 434.151 254.031 434.609C253 435.068 251.896 435.297 250.719 435.297C249.552 435.297 248.448 435.073 247.406 434.625C246.375 434.177 245.464 433.557 244.672 432.766C243.891 431.974 243.276 431.057 242.828 430.016C242.38 428.964 242.156 427.839 242.156 426.641C242.156 425.453 242.38 424.333 242.828 423.281C243.276 422.229 243.891 421.302 244.672 420.5C245.464 419.688 246.375 419.052 247.406 418.594C248.438 418.125 249.542 417.891 250.719 417.891ZM245.312 426.672C245.312 427.682 245.557 428.604 246.047 429.438C246.547 430.26 247.208 430.917 248.031 431.406C248.854 431.896 249.755 432.141 250.734 432.141C251.734 432.141 252.641 431.891 253.453 431.391C254.276 430.88 254.927 430.208 255.406 429.375C255.896 428.542 256.141 427.63 256.141 426.641C256.141 425.63 255.901 424.703 255.422 423.859C254.943 423.005 254.292 422.323 253.469 421.812C252.656 421.302 251.74 421.047 250.719 421.047C249.688 421.047 248.766 421.307 247.953 421.828C247.141 422.339 246.495 423.021 246.016 423.875C245.547 424.719 245.312 425.651 245.312 426.672ZM263.875 435.062C263.167 435.062 262.547 434.812 262.016 434.312C261.495 433.812 261.234 433.203 261.234 432.484C261.234 431.766 261.495 431.161 262.016 430.672C262.547 430.172 263.167 429.922 263.875 429.922C264.583 429.922 265.203 430.172 265.734 430.672C266.266 431.161 266.531 431.766 266.531 432.484C266.531 433.203 266.266 433.812 265.734 434.312C265.203 434.812 264.583 435.062 263.875 435.062Z" fill="white"/>
<path d="M188 160.667C179.034 160.667 170.269 163.325 162.814 168.307C155.359 173.288 149.548 180.368 146.117 188.652C142.686 196.935 141.788 206.05 143.538 214.844C145.287 223.638 149.604 231.716 155.944 238.056C162.284 244.396 170.362 248.713 179.156 250.462C187.95 252.211 197.065 251.314 205.348 247.883C213.632 244.451 220.712 238.641 225.693 231.186C230.674 223.731 233.333 214.966 233.333 206C233.333 193.977 228.557 182.446 220.055 173.945C211.554 165.443 200.023 160.667 188 160.667V160.667ZM188 245.667C180.155 245.667 172.485 243.34 165.962 238.982C159.439 234.623 154.355 228.428 151.353 221.18C148.35 213.932 147.565 205.956 149.095 198.261C150.626 190.567 154.404 183.499 159.951 177.951C165.499 172.404 172.567 168.626 180.261 167.096C187.956 165.565 195.932 166.351 203.18 169.353C210.428 172.355 216.623 177.439 220.981 183.962C225.34 190.486 227.667 198.155 227.667 206C227.667 216.52 223.487 226.61 216.048 234.049C208.609 241.488 198.52 245.667 188 245.667Z" fill="white"/>
<path d="M216.333 189.283C215.802 188.756 215.084 188.459 214.336 188.459C213.587 188.459 212.869 188.756 212.338 189.283L180.888 220.592L163.888 203.592C163.37 203.032 162.65 202.701 161.888 202.672C161.125 202.642 160.382 202.917 159.822 203.436C159.263 203.954 158.932 204.674 158.903 205.436C158.873 206.199 159.148 206.942 159.667 207.502L180.888 228.667L216.333 193.307C216.599 193.043 216.81 192.73 216.954 192.385C217.097 192.039 217.171 191.669 217.171 191.295C217.171 190.921 217.097 190.551 216.954 190.205C216.81 189.86 216.599 189.547 216.333 189.283Z" fill="white"/>
</g>
<rect x="0.5" y="0.5" width="374" height="811" stroke="white"/>
<defs>
<clipPath id="clip0">
</clipPath>
<clipPath id="clip1">
<rect width="186" height="186" fill="white" transform="matrix(-0.920127 0.391619 0.391619 0.920127 93.1436 504)"/>
</clipPath>
</defs>
</svg>
